<svg xmlns="http://www.w3.org/2000/svg" width="126.519" height="70.55" viewBox="0 0 126.519 70.55">
  <path id="Icon_awesome-bars" data-name="Icon awesome-bars" d="M4.519,17.177H122c2.5,0,4.519-1.289,4.519-2.88V7.1c0-1.59-2.023-2.88-4.519-2.88H4.519C2.023,4.219,0,5.508,0,7.1v7.2C0,15.888,2.023,17.177,4.519,17.177Zm0,28.8H122c2.5,0,4.519-1.289,4.519-2.88v-7.2c0-1.59-2.023-2.88-4.519-2.88H4.519C2.023,33.015,0,34.3,0,35.894v7.2C0,44.684,2.023,45.973,4.519,45.973Zm0,28.8H122c2.5,0,4.519-1.289,4.519-2.88v-7.2c0-1.59-2.023-2.88-4.519-2.88H4.519C2.023,61.81,0,63.1,0,64.69v7.2C0,73.479,2.023,74.768,4.519,74.768Z" transform="translate(0 -4.219)"/>
</svg>
